<svg width="150" height="150" viewBox="0 0 150 150" fill="none" xmlns="http://www.w3.org/2000/svg">
<path d="M138.628 36.258L115.964 23.1121L124.718 11.755C125.646 10.3088 126 8.56623 125.709 6.87137C125.434 5.11649 124.502 3.53262 123.103 2.44208C121.752 1.38679 120.049 0.889078 118.343 1.05083C116.631 1.19431 115.035 1.97412 113.867 3.23709L103.98 16.0991L77.0378 0.454578C76.4928 0.149313 75.8773 -0.00732725 75.253 0.000291796C74.6376 -0.00771319 74.0312 0.149117 73.4965 0.454578L46.4127 16.2694L36.4121 3.23709C35.2667 1.89072 33.6489 1.03682 31.8932 0.851876C30.1374 0.666929 28.3778 1.16506 26.9781 2.24333C25.5789 3.33387 24.6469 4.91774 24.3717 6.67262C24.1123 8.44274 24.549 10.2446 25.5899 11.6982L34.429 23.1973L12.048 36.2864C11.5078 36.601 11.0587 37.0511 10.7448 37.5925C10.434 38.1375 10.2681 38.7535 10.2632 39.3812V110.733C10.2638 111.36 10.429 111.976 10.7422 112.519C11.0555 113.063 11.5059 113.514 12.048 113.827L73.6099 149.517C74.1423 149.831 74.7485 149.998 75.3663 150C75.9931 149.998 76.6083 149.831 77.1512 149.517L138.741 113.827C139.289 113.514 139.748 113.064 140.073 112.521C140.377 111.975 140.534 111.358 140.526 110.733V39.3529C140.519 38.7127 140.343 38.0858 140.016 37.5357C139.677 36.992 139.197 36.5504 138.628 36.258ZM134.152 98.4385L75.423 126.831L16.7225 98.4385V88.501L75.423 118.058L134.095 88.501L134.152 98.4385ZM134.152 71.7492L75.423 100.312L16.7509 71.7492V61.8116L75.423 91.3687L134.095 61.8116L134.152 71.7492Z" fill="#FFAE00"/>
</svg>
